<svg width="100%" height="100%" viewBox="0 0 40 40" fill="none" xmlns="http://www.w3.org/2000/svg">
<path fill-rule="evenodd" clip-rule="evenodd" d="M0 2.5C0 1.11929 1.11929 0 2.5 0H37.5C38.8807 0 40 1.11929 40 2.5V32.8067C40 33.4807 39.7278 34.1262 39.2453 34.5967L34.4316 39.29C33.9647 39.7452 33.3384 40 32.6864 40H2.5C1.11929 40 0 38.8807 0 37.5V2.5ZM2.5 1C1.67157 1 1 1.67157 1 2.5V37.5C1 38.3284 1.67157 39 2.5 39H32.6864C33.0776 39 33.4534 38.8471 33.7335 38.574L38.5471 33.8807C38.8367 33.5984 39 33.2111 39 32.8067V2.5C39 1.67157 38.3284 1 37.5 1H2.5Z" fill="#434343" shape-rendering="geometricPrecision"/>
</svg>
