<?xml version="1.0" standalone="no"?>
<!DOCTYPE svg PUBLIC "-//W3C//DTD SVG 20010904//EN"
 "http://www.w3.org/TR/2001/REC-SVG-20010904/DTD/svg10.dtd">
<svg version="1.0" xmlns="http://www.w3.org/2000/svg"
 width="500.000000pt" height="500.000000pt" viewBox="0 0 500.000000 500.000000"
 preserveAspectRatio="xMidYMid meet">
<metadata>
Created by potrace 1.14, written by Peter Selinger 2001-2017
</metadata>
<g transform="translate(0.000000,500.000000) scale(0.100000,-0.100000)"
fill="#000000" stroke="none">
<path d="M4935 4074 c-38 -11 -379 -88 -525 -119 -274 -58 -599 -149 -747
-209 l-55 -23 138 -109 c77 -60 146 -114 154 -121 164 -130 329 -259 409 -318
26 -20 217 -171 256 -203 11 -10 61 -48 110 -87 93 -72 106 -83 159 -125 92
-75 154 -119 160 -113 9 9 8 1443 -1 1442 -5 0 -30 -7 -58 -15z"/>
<path d="M2426 3753 c-1 -1 -43 -3 -94 -4 -308 -6 -670 -114 -997 -297 -107
-60 -323 -201 -445 -290 -102 -75 -478 -378 -695 -561 -11 -9 -57 -45 -102
-80 -46 -35 -83 -67 -83 -71 0 -4 11 -15 24 -24 25 -16 362 -289 406 -329 14
-13 48 -41 75 -62 28 -22 52 -42 55 -45 15 -16 255 -203 339 -264 122 -90 310
-215 376 -251 28 -15 77 -43 110 -61 70 -39 262 -121 355 -153 81 -28 271 -77
330 -86 25 -3 57 -8 73 -11 83 -14 388 -19 487 -9 190 20 417 77 595 150 356
146 671 357 1233 826 70 58 186 152 257 209 72 56 131 106 133 110 1 4 -9 15
-24 25 -28 18 -329 259 -352 282 -7 6 -34 29 -60 50 -26 21 -49 40 -52 43 -4
5 -67 56 -120 97 -8 7 -46 38 -85 69 -173 141 -439 327 -585 409 -98 56 -284
149 -319 160 -13 4 -40 14 -60 23 -20 9 -38 16 -41 17 -3 0 -35 11 -71 23 -36
12 -74 24 -85 27 -10 2 -48 12 -84 20 -36 9 -74 18 -85 21 -11 2 -31 6 -45 9
-52 11 -357 35 -364 28z m-26 -504 c0 -173 -2 -323 -4 -334 -8 -40 -50 -141
-74 -179 -55 -87 -173 -176 -301 -224 l-76 -30 -318 1 -318 0 2 56 c2 31 9 85
17 121 7 36 16 75 18 88 14 69 92 241 147 322 108 158 265 298 427 380 83 41
233 95 295 105 85 13 170 21 178 15 4 -3 7 -148 7 -321z m165 317 c380 -41
722 -288 889 -641 56 -116 86 -232 102 -381 l6 -61 -329 2 c-361 2 -354 1
-479 70 -139 76 -214 165 -265 314 -17 48 -19 88 -19 377 0 326 1 338 35 328
6 -1 33 -5 60 -8z m1321 -1119 c4 -29 -20 -51 -49 -43 -22 5 -27 12 -27 36 0
36 27 54 54 36 11 -7 20 -20 22 -29z m164 -2 c0 -25 -4 -45 -10 -45 -5 0 -10
20 -10 45 0 25 5 45 10 45 6 0 10 -20 10 -45z m349 20 c16 0 34 -52 21 -60
-11 -7 -18 6 -15 28 2 10 -2 16 -8 14 -7 -2 -13 -13 -15 -25 -6 -37 -20 -24
-17 16 4 53 6 59 13 42 4 -8 13 -15 21 -15z m-2069 -5 c0 -5 3 -9 8 -9 21 4
32 -3 32 -20 0 -34 81 -49 115 -21 17 14 67 -4 60 -22 -9 -21 -73 -58 -100
-58 -43 0 -94 27 -115 62 -21 35 -27 78 -10 78 6 0 10 -4 10 -10z m1608 -8
c-10 -2 -18 -12 -18 -24 0 -14 5 -18 15 -14 8 3 15 1 15 -5 0 -6 -10 -9 -22
-7 -30 4 -39 54 -11 60 10 3 23 2 28 -1 6 -3 2 -7 -7 -9z m72 -12 c5 -31 -1
-40 -25 -40 -29 0 -34 24 -7 39 13 8 14 10 2 11 -13 0 -13 1 0 10 16 10 27 3
30 -20z m175 21 c20 -1 26 -4 17 -10 -7 -4 -14 -15 -16 -24 -3 -26 -53 -59
-77 -52 -14 5 -18 12 -14 23 4 10 7 24 7 32 -1 29 6 37 30 34 12 -1 37 -3 53
-3z m69 3 c10 -4 16 -18 16 -35 0 -24 -4 -29 -24 -29 -33 0 -42 28 -13 40 18
7 19 9 4 9 -10 1 -15 6 -12 11 7 12 8 12 29 4z m84 -8 c19 -12 14 -47 -8 -53
-11 -3 -20 -12 -20 -19 0 -8 -4 -14 -9 -14 -4 0 -9 22 -9 48 -1 40 1 48 16 47
9 0 23 -4 30 -9z m-253 -23 c0 -16 -5 -28 -10 -28 -4 0 -9 12 -9 28 -1 15 3
27 10 27 6 0 10 -12 9 -27z m-2065 -43 c200 -86 296 -180 357 -347 22 -62 23
-73 23 -393 l0 -329 -52 5 c-78 7 -210 32 -260 50 -406 143 -681 457 -763 874
-3 14 -8 57 -11 95 l-6 70 328 -1 c323 -1 330 -1 384 -24z m1535 -50 c-13
-153 -71 -328 -161 -480 -57 -98 -224 -274 -319 -337 -171 -114 -361 -181
-563 -198 l-43 -4 3 347 3 347 41 85 c69 142 180 236 349 294 56 20 82 21 378
21 l319 0 -7 -75z"/>
<path d="M1776 3124 c-14 -13 -16 -48 -16 -230 0 -200 1 -215 20 -234 20 -20
47 -18 62 4 4 6 8 95 8 199 l0 187 188 0 c179 0 190 1 208 21 21 23 20 25 -3
52 -14 15 -39 17 -234 17 -184 0 -220 -2 -233 -16z"/>
<path d="M2632 3128 c-7 -7 -12 -21 -12 -33 0 -42 15 -45 212 -45 l188 0 0
-189 c0 -182 1 -190 21 -205 22 -15 48 -11 61 8 4 6 8 111 8 233 0 210 -1 223
-19 233 -29 15 -444 13 -459 -2z"/>
<path d="M3830 2446 c0 -14 4 -27 9 -30 13 -9 32 19 25 38 -10 25 -34 19 -34
-8z"/>
<path d="M3975 2420 c-3 -5 -1 -10 4 -10 6 0 11 5 11 10 0 6 -2 10 -4 10 -3 0
-8 -4 -11 -10z"/>
<path d="M4115 2440 c3 -5 8 -10 11 -10 2 0 4 5 4 10 0 6 -5 10 -11 10 -5 0
-7 -4 -4 -10z"/>
<path d="M4138 2429 c-15 -16 -15 -19 -3 -19 8 0 18 0 23 0 4 0 8 9 8 20 2 24
-6 24 -28 -1z"/>
<path d="M4110 2390 c0 -5 4 -10 9 -10 6 0 13 5 16 10 3 6 -1 10 -9 10 -9 0
-16 -4 -16 -10z"/>
<path d="M4235 2420 c3 -5 8 -10 11 -10 2 0 4 5 4 10 0 6 -5 10 -11 10 -5 0
-7 -4 -4 -10z"/>
<path d="M4310 2436 c0 -8 5 -18 10 -21 6 -3 10 3 10 14 0 12 -4 21 -10 21 -5
0 -10 -6 -10 -14z"/>
<path d="M1782 2274 c-22 -15 -22 -20 -22 -234 0 -185 2 -221 16 -234 23 -23
395 -24 418 -1 17 17 13 54 -6 67 -7 4 -86 8 -175 8 l-163 0 -2 191 c-3 180
-4 192 -23 205 -18 12 -24 11 -43 -2z"/>
<path d="M3042 2274 c-21 -15 -22 -21 -22 -205 l0 -189 -164 0 c-157 0 -166
-1 -180 -21 -15 -22 -11 -48 8 -61 6 -4 99 -8 207 -8 155 0 199 3 208 14 8 9
11 80 9 236 -3 212 -4 223 -23 236 -18 12 -24 11 -43 -2z"/>
<path d="M4875 2184 c-55 -48 -113 -98 -130 -113 -16 -14 -138 -118 -270 -231
-132 -112 -251 -214 -265 -227 -14 -12 -34 -29 -45 -37 -18 -13 -13 -16 65
-39 150 -46 414 -101 585 -123 28 -3 53 -8 56 -10 3 -2 21 -6 40 -9 19 -3 46
-8 62 -11 l27 -6 0 400 c0 376 -4 492 -19 492 -3 0 -51 -39 -106 -86z"/>
</g>
</svg>
