<svg width="12" height="18" viewBox="0 0 12 18" fill="none" xmlns="http://www.w3.org/2000/svg">
<path d="M10.699 18C10.2223 18 9.78394 17.7532 9.55681 17.3569L8.96631 16.3267C7.6875 14.0956 4.30123 14.0956 3.02243 16.3267L2.42992 17.3604C2.20403 17.7545 1.76803 18 1.29396 18C0.304279 18 -0.317961 16.991 0.169458 16.1766L3.11063 11.2621C3.91907 9.91127 3.93692 8.26245 3.15789 6.89624L0.262725 1.81885C-0.205869 0.997057 0.423564 0 1.41095 0C1.9017 0 2.35092 0.260425 2.57352 0.673969L3.11425 1.67853C4.31045 3.9008 7.66958 3.89663 8.8596 1.67139L9.39072 0.678243C9.61318 0.262258 10.0642 0 10.5572 0C11.5447 0 12.1755 0.995504 11.7099 1.81885L8.84424 6.88576C8.0716 8.2519 8.091 9.89667 8.89568 11.2462L11.8306 16.1683C12.3189 16.9872 11.6932 18 10.699 18Z" fill="black"/>
</svg>
